{
  "accessors": [
    {
      "bufferView": 2,
      "componentType": 5126,
      "count": 10029,
      "max": [
        4.3334088325500488,
        12.530361175537109,
        2.0002849102020264
      ],
      "min": [
        -3.6914639472961426,
        8.5789451599121094,
        -1.8689769506454468
      ],
      "type": "VEC3"
    },
    {
      "bufferView": 2,
      "byteOffset": 120348,
      "componentType": 5126,
      "count": 10029,
      "max": [
        0.99898749589920044,
        0.99988263845443726,
        0.99991512298583984
      ],
      "min": [
        -0.99949038028717041,
        -0.99970221519470215,
        -0.99999350309371948
      ],
      "type": "VEC3"
    },
    {
      "bufferView": 1,
      "componentType": 5126,
      "count": 10029,
      "max": [
        0.93707001209259033,
        0.99804002046585083
      ],
      "min": [
        0.0019499999471008778,
        0.0019499999471008778
      ],
      "type": "VEC2"
    },
    {
      "bufferView": 0,
      "componentType": 5125,
      "count": 59982,
      "max": [
        10028
      ],
      "min": [
        0
      ],
      "type": "SCALAR"
    }
  ],
  "asset": {
    "extras": {
      "author": "Przemek Gesicki - DigitWorlds (https://sketchfab.com/lunar11)",
      "license": "CC-BY-NC-4.0 (http://creativecommons.org/licenses/by-nc/4.0/)",
      "source": "https://sketchfab.com/3d-models/brooks-shoe-by-digitworldscom-d378a44d52434b61983dbc3c842b73a1",
      "title": "Brooks Shoe by DigitWorlds.com"
    },
    "generator": "Sketchfab-9.39.0",
    "version": "2.0"
  },
  "bufferViews": [
    {
      "buffer": 0,
      "byteLength": 239928,
      "byteOffset": 0,
      "name": "floatBufferViews",
      "target": 34963
    },
    {
      "buffer": 0,
      "byteLength": 80232,
      "byteOffset": 239928,
      "byteStride": 8,
      "name": "floatBufferViews",
      "target": 34962
    },
    {
      "buffer": 0,
      "byteLength": 240696,
      "byteOffset": 320160,
      "byteStride": 12,
      "name": "floatBufferViews",
      "target": 34962
    }
  ],
  "buffers": [
    {
      "byteLength": 560856,
      "uri": "scene.bin"
    }
  ],
  "extensionsUsed": [
    "KHR_materials_unlit"
  ],
  "images": [
    {
      "uri": "textures/142_20K_baseColor.jpeg"
    }
  ],
  "materials": [
    {
      "doubleSided": true,
      "extensions": {
        "KHR_materials_unlit": {}
      },
      "name": "142_20K",
      "pbrMetallicRoughness": {
        "baseColorFactor": [
          1,
          1,
          1,
          1
        ],
        "baseColorTexture": {
          "index": 0,
          "texCoord": 0
        },
        "metallicFactor": 0,
        "roughnessFactor": 1
      }
    }
  ],
  "meshes": [
    {
      "primitives": [
        {
          "attributes": {
            "NORMAL": 1,
            "POSITION": 0,
            "TEXCOORD_0": 2
          },
          "indices": 3,
          "material": 0,
          "mode": 4
        }
      ]
    }
  ],
  "nodes": [
    {
      "children": [
        1
      ],
      "name": "RootNode (gltf orientation matrix)",
      "rotation": [
        -0.70710678118654746,
        -0,
        -0,
        0.70710678118654757
      ]
    },
    {
      "children": [
        2
      ],
      "matrix": [
        -0.96261399984359741,
        -0.1927044689655304,
        -0.19036613404750824,
        0,
        0.22173026204109192,
        -0.96424919366836548,
        -0.14511783421039581,
        0,
        -0.15559554100036621,
        -0.18190239369869232,
        0.97092819213867188,
        0,
        -1.7681529521942139,
        21.659351348876953,
        1.9173452854156494,
        1
      ],
      "name": "RootNode (model correction matrix)"
    },
    {
      "children": [
        3
      ],
      "name": "1,42 20K.obj.cleaner.materialmerger.gles"
    },
    {
      "mesh": 0,
      "name": ""
    }
  ],
  "samplers": [
    {
      "magFilter": 9729,
      "minFilter": 9987,
      "wrapS": 10497,
      "wrapT": 10497
    }
  ],
  "scene": 0,
  "scenes": [
    {
      "name": "OSG_Scene",
      "nodes": [
        0
      ]
    }
  ],
  "textures": [
    {
      "sampler": 0,
      "source": 0
    }
  ]
}

